Coordinates
version=1
nRows=8
nColumns=40
inDegrees=yes

Units are S.I. units (second, meters, Newtons, ...)
Angles are in degrees.

endheader
time	pelvis_tilt	pelvis_list	pelvis_rotation	pelvis_tx	pelvis_ty	pelvis_tz	hip_flexion_r	hip_adduction_r	hip_rotation_r	knee_angle_r	knee_angle_r_beta	ankle_angle_r	subtalar_angle_r	mtp_angle_r	hip_flexion_l	hip_adduction_l	hip_rotation_l	knee_angle_l	knee_angle_l_beta	ankle_angle_l	subtalar_angle_l	mtp_angle_l	lumbar_extension	lumbar_bending	lumbar_rotation	arm_flex_r	arm_add_r	arm_rot_r	elbow_flex_r	pro_sup_r	wrist_flex_r	wrist_dev_r	arm_flex_l	arm_add_l	arm_rot_l	elbow_flex_l	pro_sup_l	wrist_flex_l	wrist_dev_l
     49.81864286	     -4.44547144	     -5.87784796	     -3.85701091	      1.03356171	      0.93152711	      0.41969480	     24.33904174	     -0.64693669	    -11.78459736	     12.13244233	     12.13244233	      2.23289224	      5.57536360	      7.09597518	      5.82184065	     -6.55683495	    -11.96580923	     17.92979526	     17.92979526	     17.72886581	     -5.17842160	     -2.27179769	    -11.11911069	      5.53642900	      0.53099189	    -13.19610942	    -13.08884486	    -13.98139768	     27.45983292	     47.03460275	      0.00000000	      0.00000000	     20.01158027	    -16.16504436	     -9.67349063	     64.96083976	     47.17657883	      0.00000000	      0.00000000
     49.83228571	     -4.36128022	     -5.80975716	     -3.86004683	      1.03378114	      0.93116197	      0.42158596	     23.83602911	     -0.46554375	    -11.99348718	     12.43689763	     12.43689763	      2.02217186	      4.92495074	      6.72373521	      5.03796704	     -6.53878321	    -12.11927738	     17.39862160	     17.39862160	     17.92569320	     -4.76416248	     -2.28191237	    -11.10606482	      5.54510734	      0.25863602	    -12.58336985	    -13.04180779	    -13.98355186	     27.84575152	     47.01746551	      0.00000000	      0.00000000	     19.82827465	    -16.16456969	     -9.55167438	     64.33113549	     47.16084848	      0.00000000	      0.00000000
     49.84592857	     -4.31642519	     -5.65780522	     -3.85040697	      1.03412214	      0.93044103	      0.42370612	     23.24887415	     -0.30176271	    -11.73974876	     12.68102032	     12.68102032	      0.82823663	      3.45913765	      3.29604284	      4.49103369	     -6.53909648	    -12.51134032	     17.28266513	     17.28266513	     18.29472563	     -4.11240004	     -2.28432320	    -10.99098840	      5.41611173	      0.37950704	    -12.38755541	    -12.94553469	    -13.83323076	     28.61801120	     46.92860441	      0.00000000	      0.00000000	     20.19436390	    -15.92503668	     -9.19375663	     62.55039845	     47.14083407	      0.00000000	      0.00000000
     49.85957143	     -4.25896133	     -5.56204282	     -3.77935244	      1.03473027	      0.92969087	      0.42572441	     22.80229936	     -0.26685419	    -11.85505157	     13.56534575	     13.56534575	      1.02920644	      2.84834058	      2.76722807	      3.84401521	     -6.50530931	    -12.48556869	     16.98556221	     16.98556221	     18.62816763	     -3.94238981	     -2.24154310	    -10.85281312	      5.40655007	      0.24759553	    -11.82743627	    -12.97312942	    -13.83806959	     28.99437480	     46.91155748	      0.00000000	      0.00000000	     19.83520575	    -15.90623991	     -9.07634636	     62.10793701	     47.12652427	      0.00000000	      0.00000000
     49.87321429	     -4.28551589	     -5.51329111	     -3.64632211	      1.03541734	      0.92882568	      0.42781877	     22.20645335	     -0.16579786	    -11.99749121	     14.06879226	     14.06879226	      1.30874777	      2.46673455	      2.49985180	      3.42151173	     -6.56690383	    -12.38167646	     16.92878116	     16.92878116	     18.96275127	     -3.90789309	     -2.29588279	    -10.63002139	      5.41095656	      0.32654713	    -11.25544796	    -12.88825847	    -13.81214400	     29.26953884	     46.90106232	      0.00000000	      0.00000000	     19.37691533	    -15.53146927	     -8.92226822	     61.79786478	     47.10721794	      0.00000000	      0.00000000
     49.88685714	     -4.10880321	     -5.30869478	     -3.55130194	      1.03636155	      0.92802522	      0.43008866	     21.67528615	     -0.18842487	    -11.39489436	     14.98717600	     14.98717600	      0.86742322	      0.81455330	     -0.72439745	      2.72937438	     -6.49657092	    -12.58474505	     16.89319694	     16.89319694	     19.86143532	     -3.21613999	     -0.92636646	    -10.51066265	      5.35318662	      0.16495228	    -10.89165968	    -13.02287825	    -13.41767730	     30.61898193	     46.77095777	      0.00000000	      0.00000000	     19.51902261	    -15.46851189	     -8.75142960	     59.28368818	     47.08533479	      0.00000000	      0.00000000
     49.90050000	     -3.96903836	     -5.25052399	     -3.39526874	      1.03735524	      0.92737164	      0.43230006	     21.00801878	     -0.14528638	    -11.39274466	     15.58566071	     15.58566071	      1.43675565	      0.52433700	     -1.06178739	      2.20929754	     -6.57268171	    -12.48732219	     17.02867579	     17.02867579	     20.12552448	     -3.25184279	     -0.94023727	    -10.43741571	      5.39114969	      0.22300433	    -10.15409414	    -12.99800460	    -13.39697809	     30.99377825	     46.75722204	      0.00000000	      0.00000000	     18.89954069	    -15.10416225	     -8.58898138	     58.83806713	     47.06213657	      0.00000000	      0.00000000
     49.91414286	     -3.88752528	     -5.09139658	     -3.24189731	      1.03832229	      0.92664307	      0.43461207	     20.61629231	     -0.21577596	    -11.18096693	     16.40975857	     16.40975857	      2.10239117	     -0.04138383	     -1.77163135	      1.83219992	     -6.56707627	    -12.33940398	     17.30845174	     17.30845174	     20.56075342	     -3.25151323	     -0.49615510	    -10.24860662	      5.35806107	     -0.21446581	     -9.16576802	    -13.06068173	    -13.30171335	     31.85625686	     46.71097058	      0.00000000	      0.00000000	     18.25779955	    -15.22816356	     -8.56893723	     57.30835432	     47.03996203	      0.00000000	      0.00000000
